<?xml version="1.0" encoding="UTF-8" standalone="no"?>
<svg
   xmlns:dc="http://purl.org/dc/elements/1.1/"
   xmlns:cc="http://creativecommons.org/ns#"
   xmlns:rdf="http://www.w3.org/1999/02/22-rdf-syntax-ns#"
   xmlns:svg="http://www.w3.org/2000/svg"
   xmlns="http://www.w3.org/2000/svg"
   xmlns:sodipodi="http://sodipodi.sourceforge.net/DTD/sodipodi-0.dtd"
   xmlns:inkscape="http://www.inkscape.org/namespaces/inkscape"
   version="1.1"
   x="0px"
   y="0px"
   viewBox="0 0 100 125"
   style="enable-background:new 0 0 100 100;"
   xml:space="preserve"
   id="svg8"
   sodipodi:docname="noun_214731_cc.svg"
   inkscape:version="0.92.2 (5c3e80d, 2017-08-06)"><metadata
     id="metadata14"><rdf:RDF><cc:Work
         rdf:about=""><dc:format>image/svg+xml</dc:format><dc:type
           rdf:resource="http://purl.org/dc/dcmitype/StillImage" /></cc:Work></rdf:RDF></metadata><defs
     id="defs12" /><sodipodi:namedview
     pagecolor="#ffffff"
     bordercolor="#666666"
     borderopacity="1"
     objecttolerance="10"
     gridtolerance="10"
     guidetolerance="10"
     inkscape:pageopacity="0"
     inkscape:pageshadow="2"
     inkscape:window-width="1920"
     inkscape:window-height="1001"
     id="namedview10"
     showgrid="false"
     inkscape:zoom="5.3400704"
     inkscape:cx="46.067214"
     inkscape:cy="51.184734"
     inkscape:window-x="-9"
     inkscape:window-y="-9"
     inkscape:window-maximized="1"
     inkscape:current-layer="svg8" /><path
     d="M16.4,87L16.4,87c1.1,1,2.7,0.9,3.7-0.2l12.2-13.5c6.3,4.5,14.1,6.8,22.6,5.8C70,77.5,82.1,65.4,83.7,50.3  C85.8,30,69.2,13,49.1,14.2c-16.2,1-29.4,14.2-30.4,30.5c-0.6,9.9,3.2,18.9,9.6,25.2L16.2,83.3C15.3,84.4,15.4,86,16.4,87z   M51.2,74.1c-15.1,0-27.3-12.3-27.3-27.3c0-15.1,12.3-27.3,27.3-27.3s27.3,12.3,27.3,27.3C78.6,61.9,66.3,74.1,51.2,74.1z"
     id="path2"
     style="fill:#317ca5;fill-opacity:1" /></svg>